<svg xmlns="http://www.w3.org/2000/svg" xmlns:xlink="http://www.w3.org/1999/xlink" width="47" height="47" viewBox="0 0 47 47"><defs><clipPath id="a"><rect width="47" height="47" fill="none"/></clipPath></defs><g clip-path="url(#a)"><path d="M40.117,6.883A23.5,23.5,0,0,0,6.883,40.117,23.5,23.5,0,0,0,40.117,6.883Zm-.974.974a22.016,22.016,0,0,1,5.465,8.989A17.5,17.5,0,0,0,40,12.761a24.89,24.89,0,0,0-3.815-1.949c0-.009-.006-.018-.009-.027a19.969,19.969,0,0,0-6.027-8.4A22.016,22.016,0,0,1,39.143,7.857Zm-31.287,0A22.018,22.018,0,0,1,16.851,2.39,17.34,17.34,0,0,0,12.892,6.8a.688.688,0,0,0,1.157.747c2.567-3.977,5.923-6.167,9.451-6.167,4.288,0,8.3,3.253,10.887,8.768A34.571,34.571,0,0,0,23.5,8.449,31.325,31.325,0,0,0,7,12.761a17.5,17.5,0,0,0-4.611,4.084A22.018,22.018,0,0,1,7.857,7.857Zm-.12,6.07a22.759,22.759,0,0,1,2.418-1.32A34.637,34.637,0,0,0,8.449,23.5a34.569,34.569,0,0,0,1.7,10.887C4.627,31.8,1.377,27.8,1.377,23.5,1.377,19.909,3.636,16.509,7.737,13.927Zm.12,25.217a22.018,22.018,0,0,1-5.464-8.987,19.989,19.989,0,0,0,8.42,6.027A24.89,24.89,0,0,0,12.761,40a17.5,17.5,0,0,0,4.084,4.611A22.018,22.018,0,0,1,7.857,39.143Zm6.07.12A29.939,29.939,0,0,1,9.826,23.5,32.685,32.685,0,0,1,11.88,11.87,32.574,32.574,0,0,1,23.5,9.826a29.939,29.939,0,0,1,15.763,4.1c4.1,2.582,6.36,5.982,6.36,9.573s-2.259,6.991-6.36,9.573a22.752,22.752,0,0,1-2.409,1.315,34.569,34.569,0,0,0,1.7-10.889c0-.862-.03-1.731-.089-2.583a.688.688,0,1,0-1.374.1c.057.82.086,1.657.086,2.487a32.571,32.571,0,0,1-2.047,11.627A32.569,32.569,0,0,1,23.5,37.174a34.224,34.224,0,0,1-7.817-.884.688.688,0,1,0-.315,1.34,35.6,35.6,0,0,0,8.132.92,34.57,34.57,0,0,0,10.889-1.7,22.77,22.77,0,0,1-1.315,2.409c-2.582,4.1-5.982,6.36-9.573,6.36S16.509,43.364,13.927,39.263Zm25.217-.12a22.016,22.016,0,0,1-8.989,5.465A17.5,17.5,0,0,0,34.239,40a24.882,24.882,0,0,0,1.948-3.811A24.882,24.882,0,0,0,40,34.239a17.5,17.5,0,0,0,4.611-4.084A22.016,22.016,0,0,1,39.143,39.143Z"/><g transform="translate(27.036 18.587)"><path d="M297.742,202.481a3.227,3.227,0,0,0-3.223,3.223v3.379a3.223,3.223,0,0,0,6.446,0V205.7A3.227,3.227,0,0,0,297.742,202.481Zm1.846,6.6a1.846,1.846,0,0,1-3.692,0V205.7a1.846,1.846,0,1,1,3.692,0Z" transform="translate(-294.519 -202.481)"/></g><g transform="translate(19.432 18.587)"><path d="M214.909,205.861a3.2,3.2,0,0,0-1.843.582,2.694,2.694,0,0,1,2.688-2.584.688.688,0,0,0,0-1.377,4.072,4.072,0,0,0-4.068,4.068v2.535a3.223,3.223,0,1,0,3.223-3.223Zm0,5.069a1.846,1.846,0,1,1,1.846-1.846A1.848,1.848,0,0,1,214.909,210.931Z" transform="translate(-211.686 -202.482)"/></g><g transform="translate(12.673 18.587)"><path d="M142.613,207.394a2.71,2.71,0,0,0,1.044-2.112,2.928,2.928,0,0,0-3.034-2.8,3.108,3.108,0,0,0-2.4,1.092.688.688,0,1,0,1.057.882,1.76,1.76,0,0,1,1.347-.6,1.44,1.44,0,1,1,0,2.847.688.688,0,0,0,0,1.377,1.44,1.44,0,1,1,0,2.847,1.758,1.758,0,0,1-1.349-.6.689.689,0,1,0-1.059.88,3.107,3.107,0,0,0,2.409,1.1,2.928,2.928,0,0,0,3.034-2.8A2.71,2.71,0,0,0,142.613,207.394Z" transform="translate(-138.055 -202.481)"/></g><g transform="translate(32.95 14.363)"><path d="M361.323,156.463a2.378,2.378,0,1,0,2.378,2.378A2.381,2.381,0,0,0,361.323,156.463Zm0,3.379a1,1,0,1,1,1-1A1,1,0,0,1,361.323,159.842Z" transform="translate(-358.945 -156.463)"/></g></g></svg>