<svg xmlns="http://www.w3.org/2000/svg" width="55.838" height="32.339" viewBox="0 0 55.838 32.339"><path d="M0,99.95v32.339H55.838V99.95Zm1.187,12.9H2.951v6.489H1.187Zm.012-1.14v-4.15H8.252v17.069H1.2v-4.1H4.1v-8.816Zm-.012,19.42v-5.313H9.381v-5.925a3.727,3.727,0,0,0,2.727-1.822,3.846,3.846,0,0,0,0-3.832,3.78,3.78,0,0,0-2.727-1.893V106.4H1.187v-5.266H27.319v8.229a6.774,6.774,0,0,0,0,13.5v8.252h1.187v-8.252a6.768,6.768,0,0,0,0-13.483v-8.229H54.639v5.266H46.4v5.936a3.815,3.815,0,0,0-2.68,5.725,3.736,3.736,0,0,0,2.692,1.81v5.925h8.24v5.313Zm8.205-12.4v-5.172a2.5,2.5,0,0,1,1.716,1.27,2.6,2.6,0,0,1,0,2.645A2.629,2.629,0,0,1,9.393,118.723Zm17.927-8.158v11.1a5.58,5.58,0,0,1,0-11.1Zm1.2,11.1v-11.1a5.58,5.58,0,0,1,0,11.1Zm17.892-8.111V118.7a2.59,2.59,0,0,1-1.669-1.246,2.715,2.715,0,0,1-.047-2.645A2.646,2.646,0,0,1,46.41,113.551Zm8.24,5.784H52.887v-6.489h1.763Zm0-7.629H51.7v8.816h2.951v4.1H47.6V107.556h7.053Z" transform="translate(0 -99.95)"/></svg>