<svg xmlns="http://www.w3.org/2000/svg" xmlns:xlink="http://www.w3.org/1999/xlink" width="48" height="48" viewBox="0 0 48 48"><defs><clipPath id="a"><rect width="48" height="48" transform="translate(0 -0.101)" fill="none"/></clipPath></defs><g transform="translate(0 0.101)" clip-path="url(#a)"><path d="M289.379,353.83H288.5v-.882a2.441,2.441,0,0,0-2.438-2.438h-8.3a2.441,2.441,0,0,0-2.438,2.438v.882h-.882A2.441,2.441,0,0,0,272,356.268v1.66a.778.778,0,0,0,.778.778h18.261a.778.778,0,0,0,.778-.778v-1.66A2.441,2.441,0,0,0,289.379,353.83Zm-12.5-.882a.883.883,0,0,1,.882-.882h8.3a.883.883,0,0,1,.882.882v.882H276.876Zm13.384,4.2h-16.7v-.882a.883.883,0,0,1,.882-.882h14.941a.883.883,0,0,1,.882.882Z" transform="translate(-243.778 -314.282)"/><path d="M29.778,52.95l-.037.037a2.438,2.438,0,0,0,3.448,3.448l4.7-4.7a2.438,2.438,0,1,0-3.448-3.448l-.037.037-1.8-1.805a1.609,1.609,0,0,0-.408-1.581L27.148,39.9a1.609,1.609,0,0,0-1.581-.407l-1.805-1.8.037-.037a2.438,2.438,0,0,0-3.448-3.448l-4.7,4.7A2.438,2.438,0,0,0,19.1,42.349l.037-.037,1.8,1.8a1.614,1.614,0,0,0-.063.445,1.6,1.6,0,0,0,.471,1.137l.209.209L19.948,47.52a2.431,2.431,0,0,0-.706,1.879L.714,67.928a2.438,2.438,0,1,0,3.448,3.448L22.69,52.848c.052,0,.1.007.155.007a2.431,2.431,0,0,0,1.724-.713l1.613-1.613.209.209a1.6,1.6,0,0,0,1.137.471,1.614,1.614,0,0,0,.445-.063Zm6.383-3.816a.882.882,0,0,1,.624,1.505l-4.7,4.7a.882.882,0,0,1-1.247-1.247l4.7-4.7A.879.879,0,0,1,36.161,49.134ZM30.879,51.85l-1.662-1.662,2.421-2.421L33.3,49.429Zm-14.123-10.6a.883.883,0,0,1,0-1.247l4.7-4.7A.882.882,0,1,1,22.7,36.553l-4.7,4.7A.883.883,0,0,1,16.756,41.248Zm5.906-2.458,1.662,1.662L21.9,42.874,20.24,41.212ZM3.062,70.275a.882.882,0,1,1-1.247-1.247l18.1-18.1c.012.013.022.026.035.039l1.174,1.174c.012.012.026.023.039.035ZM23.469,51.042a.883.883,0,0,1-1.247,0l-1.174-1.174a.883.883,0,0,1,0-1.247l1.613-1.613,2.421,2.421ZM22.453,44.6a.052.052,0,0,1,0-.073L25.974,41a.052.052,0,0,1,.073,0l5.039,5.039a.052.052,0,0,1,0,.073l-3.522,3.522a.052.052,0,0,1-.073,0Z" transform="translate(0 -30.156)"/></g></svg>