<svg xmlns="http://www.w3.org/2000/svg" width="57.711" height="34.208" viewBox="0 0 57.711 34.208"><path d="M40.607,92.61A17.043,17.043,0,0,0,28.855,97.3a17.1,17.1,0,1,0,0,24.823A17.1,17.1,0,1,0,40.607,92.61ZM17.1,125.282A15.568,15.568,0,1,1,27.781,98.415a17.06,17.06,0,0,0,0,22.6A15.5,15.5,0,0,1,17.1,125.282Zm7.933-15.568a15.489,15.489,0,0,1,3.818-10.182,15.483,15.483,0,0,1,0,20.362A15.486,15.486,0,0,1,25.037,109.715Zm15.569,15.568a15.5,15.5,0,0,1-10.677-4.268,17.06,17.06,0,0,0,0-22.6,15.559,15.559,0,1,1,10.677,26.869ZM29.874,102.514H27.6v-.768h2.271Zm-2.063,14.4h2.272v.768H27.811Zm3.632-11.68H26.451v-.768h4.992Zm.48,2.464H25.572v-.768h6.351Zm.223,1.76v.768H25.563v-.768Zm-6.255,2.509h5.925v.768H25.891Zm.559,2.451h4.512v.768H26.451Z" transform="translate(0 -92.611)"/></svg>