<svg xmlns="http://www.w3.org/2000/svg" width="36.096" height="40.264" viewBox="0 0 36.096 40.264">
  <g id="integrity_ic" transform="translate(-2.872 -1.125)">
    <path id="Path_352" data-name="Path 352" d="M14.056,5.128q-3.682.99-7.314,2.152a1.219,1.219,0,0,0-.846.983c-1.43,10.46,1.871,18.094,5.809,23.122A27.352,27.352,0,0,0,17.6,37a16.113,16.113,0,0,0,2.3,1.342,5.817,5.817,0,0,0,.756.295,1.961,1.961,0,0,0,.261.066,1.541,1.541,0,0,0,.26-.062,6.312,6.312,0,0,0,.756-.3A16.048,16.048,0,0,0,24.236,37a27.371,27.371,0,0,0,5.9-5.618c3.939-5.027,7.242-12.661,5.81-23.122A1.219,1.219,0,0,0,35.1,7.28c-1.681-.537-4.514-1.411-7.314-2.152A34.5,34.5,0,0,0,20.92,3.809,34.454,34.454,0,0,0,14.056,5.128Zm-.687-2.592a35.929,35.929,0,0,1,7.551-1.41A36.02,36.02,0,0,1,28.47,2.534q3.746,1.006,7.441,2.188A3.9,3.9,0,0,1,38.6,7.9c1.538,11.266-2.029,19.614-6.354,25.138a30.04,30.04,0,0,1-6.491,6.174,18.635,18.635,0,0,1-2.7,1.574,5.576,5.576,0,0,1-2.137.6,5.577,5.577,0,0,1-2.137-.6,18.543,18.543,0,0,1-2.7-1.574,30.042,30.042,0,0,1-6.488-6.174C5.263,27.514,1.7,19.166,3.236,7.9A3.9,3.9,0,0,1,5.929,4.722Q9.623,3.54,13.369,2.534Z" transform="translate(0 0)" fill="#0c2c3b"/>
    <path id="Path_353" data-name="Path 353" d="M18,5.063c2.44,0,8.557,1.838,11.418,2.744a2.523,2.523,0,0,1,1.761,2.075C33.364,27.125,20.093,35.253,18,35.253Z" transform="translate(2.92 0.76)" fill="#0c2c3b"/>
  </g>
</svg>
