<svg xmlns="http://www.w3.org/2000/svg" xmlns:xlink="http://www.w3.org/1999/xlink" width="52" height="52" viewBox="0 0 52 52"><defs><clipPath id="a"><rect width="52" height="52" transform="translate(0.078 -0.487)" fill="none"/></clipPath></defs><g transform="translate(-0.078 0.487)" clip-path="url(#a)"><g transform="translate(0 16.302)"><path d="M49.157,165.932a2.537,2.537,0,0,0-2.17,1.225l-10.849-2.411a2.536,2.536,0,1,0-4.97.929l-11.541,7.7a2.534,2.534,0,0,0-4.086,2l-10.982,3.66a2.535,2.535,0,1,0,.513,1.535l10.982-3.66a2.535,2.535,0,0,0,4.472-2.186l11.542-7.7a2.532,2.532,0,0,0,3.719-.695l10.848,2.411a2.536,2.536,0,1,0,2.522-2.8ZM2.536,181.473a.917.917,0,1,1,.917-.917A.918.918,0,0,1,2.536,181.473Zm15.54-5.18a.917.917,0,1,1,.917-.917A.918.918,0,0,1,18.076,176.292Zm15.54-10.36a.917.917,0,1,1,.917-.917A.918.918,0,0,1,33.616,165.932Zm15.54,3.453a.917.917,0,1,1,.917-.917A.918.918,0,0,1,49.157,169.386Z" transform="translate(0 -162.479)"/></g><g transform="translate(19.886 21.917)"><path d="M214.018,218.226a.809.809,0,0,0-1.117.251l-9.374,14.8a2.531,2.531,0,0,0-1.459.077l-3.659-4.622a.809.809,0,1,0-1.269,1l3.66,4.623a2.536,2.536,0,1,0,4.095-.215l9.375-14.8A.809.809,0,0,0,214.018,218.226Zm-11.093,18.432a.917.917,0,1,1,.917-.917A.918.918,0,0,1,202.925,236.658Z" transform="translate(-196.965 -218.1)"/></g><g transform="translate(39.151 9.394)"><path d="M400.259,94.567a.809.809,0,0,0-1.052-.451l-6.4,2.562a2.534,2.534,0,0,0-3.9,3.24l-1,1.586a.809.809,0,1,0,1.368.866l1-1.585a2.535,2.535,0,0,0,3.138-2.463c0-.047,0-.094,0-.141l6.4-2.562A.809.809,0,0,0,400.259,94.567Zm-9.385,4.672a.917.917,0,1,1,.917-.917A.918.918,0,0,1,390.874,99.239Z" transform="translate(-387.775 -94.058)"/></g><g transform="translate(0 16.302)"><path d="M15.541,171.414,11.569,166.4a2.535,2.535,0,1,0-4.508-.512L.3,171.29a.809.809,0,1,0,1.011,1.264l6.758-5.405a2.53,2.53,0,0,0,2.227.254l3.971,5.016a.809.809,0,0,0,1.269-1Zm-6.1-5.48a.917.917,0,1,1,.917-.917A.918.918,0,0,1,9.444,165.933Z" transform="translate(-0.001 -162.48)"/></g></g></svg>