<svg id="technology_ic" xmlns="http://www.w3.org/2000/svg" width="40.232" height="36.575" viewBox="0 0 40.232 36.575">
  <path id="Path_84" data-name="Path 84" d="M15.5,23.25h2.438v2.438H15.5Z" transform="translate(-10.623 -13.497)" fill="#0c2c3b"/>
  <path id="Path_85" data-name="Path 85" d="M15.5,43.917h2.438v2.438H15.5Z" transform="translate(-10.623 -24.41)" fill="#0c2c3b"/>
  <path id="Path_86" data-name="Path 86" d="M25.833,43.917H42.9v2.438H25.833Z" transform="translate(-16.08 -24.41)" fill="#0c2c3b"/>
  <path id="Path_87" data-name="Path 87" d="M15.5,64.583h2.438v2.438H15.5Z" transform="translate(-10.623 -35.324)" fill="#0c2c3b"/>
  <path id="Path_88" data-name="Path 88" d="M25.833,64.583H42.9v2.438H25.833Z" transform="translate(-16.08 -35.324)" fill="#0c2c3b"/>
  <path id="Path_89" data-name="Path 89" d="M25.833,25.688H42.9v-.622a9.12,9.12,0,0,1-1.061-1.817H25.833Z" transform="translate(-16.08 -13.497)" fill="#0c2c3b"/>
  <path id="Path_90" data-name="Path 90" d="M39.3,23.28a9.107,9.107,0,0,1-3.267-.61H7.6V15.355h22.64a8.748,8.748,0,0,1,0-2.438H7.6a2.438,2.438,0,0,0-2.438,2.438V42.176A2.438,2.438,0,0,0,7.6,44.615H41.741a2.438,2.438,0,0,0,2.438-2.438V21.865A9.1,9.1,0,0,1,39.3,23.28ZM7.6,25.108H41.741v7.315H7.6Zm0,17.068V34.861H41.741v7.315Z" transform="translate(-5.167 -8.04)" fill="#0c2c3b"/>
  <path id="Path_91" data-name="Path 91" d="M70.679,14.775a6.1,6.1,0,1,0-6.1-6.1A6.1,6.1,0,0,0,70.679,14.775Z" transform="translate(-36.543 -2.583)" fill="#0c2c3b"/>
</svg>
