<svg width="180" height="34" viewBox="0 0 180 34" fill="none" xmlns="http://www.w3.org/2000/svg">
<path d="M56.2424 2.858C59.3108 2.858 60.6039 4.29359 60.6039 6.40449C60.6039 7.89821 59.9506 8.80161 58.734 9.28014C59.3354 9.49663 59.8492 9.90205 60.1972 10.4348C60.5453 10.9675 60.7086 11.5985 60.6625 12.2318C60.6625 14.3025 59.3693 15.8096 56.301 15.8096H50.5067C50.3609 15.8328 50.2117 15.8217 50.0711 15.7772C49.9305 15.7326 49.8024 15.6559 49.6972 15.5532C49.592 15.4505 49.5125 15.3246 49.4653 15.1858C49.4181 15.0471 49.4044 14.8992 49.4253 14.7542V3.91345C49.4044 3.76843 49.4181 3.62056 49.4653 3.48177C49.5125 3.34297 49.592 3.21714 49.6972 3.11443C49.8024 3.01171 49.9305 2.93499 50.0711 2.89045C50.2117 2.8459 50.3609 2.83479 50.5067 2.858H56.2424ZM51.6646 8.31861H56.3235C57.6752 8.31861 58.3285 7.82219 58.3285 6.76674C58.3285 5.71129 57.7338 5.0807 56.3415 5.0807H51.9395C51.7818 5.0807 51.6871 5.15673 51.6871 5.30879L51.6646 8.31861ZM51.6646 13.3409C51.6646 13.4975 51.7592 13.5556 51.9169 13.5556H56.355C57.7293 13.5556 58.3646 12.9205 58.3646 11.8651C58.3646 10.8096 57.6887 10.1969 56.355 10.1969H51.6646V13.3409Z" fill="#0083CB"/>
<path d="M65.452 2.85791V11.3105C65.452 12.5582 66.0693 13.5466 68.1194 13.5466H73.1792V15.8095H67.9842C64.5238 15.8095 63.1721 13.9312 63.1721 11.3373V2.85791H65.452Z" fill="#0083CB"/>
<path d="M82.1186 2.85791C85.9034 2.85791 88.0076 5.00459 88.0076 9.35608C88.0076 13.7076 85.9259 15.7961 82.1186 15.7961H80.3434C76.5361 15.7961 74.45 13.6852 74.45 9.35608C74.45 5.02695 76.5586 2.85791 80.3434 2.85791H82.1186ZM80.3434 5.12087C77.8337 5.12087 76.7388 6.38204 76.7388 9.35608C76.7388 12.3301 77.8202 13.5332 80.3434 13.5332H82.1186C84.6283 13.5332 85.7232 12.3078 85.7232 9.33819C85.7232 6.36862 84.6418 5.12087 82.1186 5.12087H80.3434Z" fill="#0083CB"/>
<path d="M101.142 2.85791V5.12087H96.0999C93.5902 5.12087 92.4953 6.36415 92.4953 9.33819C92.4953 12.3122 93.5767 13.5332 96.0999 13.5332H101.142V15.7961H96.0999C92.2971 15.7961 90.2109 13.6673 90.2109 9.33819C90.2109 5.00906 92.3151 2.85791 96.0999 2.85791H101.142Z" fill="#0083CB"/>
<path d="M106.143 2.85791V8.34088H107.396C109.648 8.34088 110.004 8.14857 110.739 6.73087L112.726 2.85791H115.181L113.131 6.88293C112.555 8.0323 111.937 8.77916 110.879 9.2398C112.095 9.56627 112.681 10.2371 113.465 11.7308L115.573 15.7961H113.023L111.032 11.9634C110.32 10.5815 109.856 10.3892 107.4 10.3892H106.148V15.7961H103.868V2.85791H106.143Z" fill="#0083CB"/>
<path d="M127.036 2.85791V5.12087H121.998C119.489 5.12087 118.394 6.36415 118.394 9.33819C118.394 12.3122 119.475 13.5332 121.998 13.5332H127.036V15.7961H121.998C118.191 15.7961 116.105 13.6673 116.105 9.33819C116.105 5.00906 118.213 2.85791 121.998 2.85791H127.036Z" fill="#0083CB"/>
<path d="M132.019 2.85791V8.13068H138.683V2.85791H140.981V15.7961H138.683V10.3892H132.019V15.7961H129.766V2.85791H132.019Z" fill="#0083CB"/>
<path d="M145.441 15.7961H142.932L147.509 4.29351C147.992 3.08601 148.861 2.62537 150.249 2.62537C151.637 2.62537 152.502 3.07259 152.952 4.29351L157.354 15.7961H154.827L150.866 5.38921C150.829 5.25312 150.745 5.13411 150.629 5.05253C150.513 4.97095 150.373 4.93187 150.231 4.94199C150.087 4.93477 149.945 4.97461 149.826 5.0554C149.707 5.13619 149.618 5.25346 149.573 5.38921L145.441 15.7961Z" fill="#0083CB"/>
<path d="M161.567 2.85791V15.7961H159.287V2.85791H161.567Z" fill="#0083CB"/>
<path d="M166.974 15.7961H164.694V5.44288C164.694 3.75684 165.659 2.62537 167.686 2.62537C169.488 2.62537 170.313 3.54665 170.84 5.02249L174.647 13.2872C174.718 13.4472 174.834 13.5833 174.981 13.6786C175.128 13.774 175.301 13.8245 175.476 13.8239C175.577 13.8343 175.679 13.823 175.775 13.7906C175.871 13.7582 175.959 13.7056 176.033 13.6364C176.107 13.5671 176.164 13.4828 176.202 13.3894C176.24 13.2959 176.257 13.1954 176.251 13.0949V2.85792H178.549V13.1888C178.549 14.8972 177.563 16.0242 175.553 16.0242C173.751 16.0242 172.908 15.1298 172.368 13.6316L168.578 5.36685C168.524 5.19848 168.415 5.05276 168.268 4.95243C168.121 4.85211 167.945 4.80283 167.767 4.81229C167.663 4.79863 167.558 4.8082 167.458 4.8403C167.358 4.8724 167.267 4.92622 167.191 4.99782C167.115 5.06942 167.056 5.15699 167.019 5.25411C166.981 5.35124 166.966 5.45546 166.974 5.55916V15.7961Z" fill="#0083CB"/>
<path d="M48.4881 32.3613H45.9604L50.5562 20.8587C51.0384 19.6512 51.908 19.1906 53.3002 19.1906C54.6925 19.1906 55.5531 19.6378 56.0036 20.8587L60.4057 32.3613H57.878L53.9175 21.9499C53.8786 21.8139 53.7938 21.6953 53.6774 21.6139C53.5609 21.5325 53.4198 21.4932 53.2777 21.5027C53.1346 21.4965 52.9933 21.5368 52.8754 21.6175C52.7575 21.6982 52.6694 21.8149 52.6244 21.9499L48.4881 32.3613Z" fill="#91288F"/>
<path d="M63.7264 19.4231V27.8756C63.7264 29.1189 64.3437 30.1118 66.3938 30.1118H71.4537V32.3747H66.2586C62.7982 32.3747 61.4465 30.4964 61.4465 27.9025V19.4231H63.7264Z" fill="#91288F"/>
<path d="M83.984 19.4231V21.6592H78.6178C76.1081 21.6592 75.0132 22.907 75.0132 25.8766C75.0132 28.8461 76.0946 30.076 78.6178 30.076H80.7805C82.0556 30.076 82.5828 29.3112 82.5828 28.2558C82.5828 27.2004 82.0421 26.6055 80.9788 26.6055H78.0816V24.6556H81.2085C83.529 24.6556 84.6689 26.0733 84.6689 28.3139C84.6689 30.5545 83.529 32.339 80.6138 32.339H78.6088C74.8015 32.339 72.7153 30.2102 72.7153 25.8766C72.7153 21.543 74.824 19.4008 78.6088 19.4008L83.984 19.4231Z" fill="#91288F"/>
<path d="M94.4731 19.4231C98.2579 19.4231 100.362 21.5698 100.362 25.9213C100.362 30.2728 98.2759 32.3613 94.4731 32.3613H92.6934C88.8906 32.3613 86.8044 30.2504 86.8044 25.9213C86.8044 21.5921 88.9086 19.4231 92.6934 19.4231H94.4731ZM92.6934 21.6592C90.1837 21.6592 89.0888 22.9249 89.0888 25.8989C89.0888 28.8729 90.1702 30.076 92.6934 30.076H94.4731C96.9828 30.076 98.0777 28.8506 98.0777 25.8765C98.0777 22.9025 96.9963 21.6592 94.4731 21.6592H92.6934Z" fill="#91288F"/>
<path d="M110.076 19.4231C113.009 19.4231 114.267 21.212 114.267 23.2916C114.267 24.9016 113.492 26.6279 111.505 27.1824L114.537 32.3613H112.005L109.04 27.3569H105.643C105.598 27.35 105.552 27.3537 105.509 27.3677C105.466 27.3817 105.427 27.4056 105.395 27.4374C105.363 27.4691 105.339 27.508 105.325 27.5507C105.311 27.5935 105.307 27.6389 105.314 27.6833V32.3613H103.034V27.2406C103.034 25.7871 103.651 25.1923 105.084 25.1923H110.162C110.403 25.2088 110.645 25.1739 110.871 25.0899C111.097 25.0058 111.302 24.8746 111.473 24.7051C111.644 24.5355 111.776 24.3316 111.861 24.1071C111.946 23.8825 111.981 23.6426 111.964 23.4034C111.964 22.4821 111.401 21.695 110.162 21.695H103.007V19.4589L110.076 19.4231Z" fill="#91288F"/>
<path d="M119.11 19.4231V32.3613H116.835V19.4231H119.11Z" fill="#91288F"/>
<path d="M131.145 19.4231V21.6592H127.338V32.3613H125.04V21.6816H121.237V19.4455L131.145 19.4231Z" fill="#91288F"/>
<path d="M135.565 19.4231V24.6914H142.229V19.4231H144.527V32.3613H142.229V26.9544H135.565V32.3613H133.285V19.4231H135.565Z" fill="#91288F"/>
<path d="M149.915 32.3613H147.663V22.0752C147.663 20.3534 148.685 19.1816 150.79 19.1816C152.646 19.1816 153.709 20.1029 154.074 21.7308L155.899 29.6556C155.951 29.8451 156.064 30.0124 156.221 30.1316C156.378 30.2509 156.571 30.3155 156.769 30.3155C156.966 30.3155 157.159 30.2509 157.316 30.1316C157.473 30.0124 157.586 29.8451 157.638 29.6556L159.472 21.7398C159.841 20.1119 160.824 19.1906 162.68 19.1906C164.784 19.1906 165.807 20.3623 165.807 22.0841V32.3703H163.554V22.2004C163.554 21.704 163.225 21.3775 162.626 21.3775C162.416 21.3577 162.206 21.4178 162.039 21.5456C161.871 21.6735 161.759 21.8595 161.725 22.0662L159.841 29.9642C159.436 31.6726 158.544 32.5715 156.751 32.5715C154.957 32.5715 153.989 31.6324 153.597 29.9642L151.745 22.0483C151.707 21.843 151.594 21.6588 151.428 21.5316C151.261 21.4043 151.053 21.343 150.844 21.3596C150.728 21.3468 150.611 21.3587 150.501 21.3945C150.391 21.4303 150.289 21.4892 150.204 21.5672C150.119 21.6452 150.051 21.7405 150.006 21.8467C149.961 21.9528 149.939 22.0673 149.942 22.1825L149.915 32.3613Z" fill="#91288F"/>
<path d="M179.018 19.4231V21.6592H172.336C171.155 21.6592 170.633 22.2943 170.633 23.1932C170.633 23.9803 171.038 24.7272 172.566 24.7272H175.616C179.171 24.7272 180 26.6815 180 28.542C180 30.7289 178.824 32.3389 175.85 32.3389H168.587V30.0983H175.927C177.161 30.0983 177.729 29.4275 177.729 28.4883C177.729 27.6431 177.279 26.8783 175.679 26.8783H172.647C169.173 26.8783 168.362 24.9418 168.362 23.1395C168.362 20.9929 169.52 19.4231 172.417 19.4231H179.018Z" fill="#91288F"/>
<path d="M38.0879 15.7558L29.5271 0.997397C29.3486 0.691346 29.0915 0.437781 28.782 0.262575C28.4725 0.0873685 28.1217 -0.00320804 27.7654 8.67848e-05H10.5943C10.2413 -0.00155084 9.89432 0.0899326 9.58872 0.265171C9.28312 0.44041 9.02993 0.693109 8.85507 0.997397L0.267237 15.7558C0.092136 16.0586 0 16.4017 0 16.7509C0 17.1 0.092136 17.4431 0.267237 17.746L8.85507 32.5044C9.03157 32.8069 9.28524 33.0579 9.59056 33.2322C9.89587 33.4065 10.2421 33.4979 10.5943 33.4972H27.7654C28.1172 33.4957 28.4625 33.4033 28.7674 33.2293C29.0723 33.0552 29.3264 32.8054 29.5046 32.5044L38.0654 17.746C38.2457 17.4457 38.3428 17.1034 38.3467 16.7539C38.3507 16.4044 38.2614 16.06 38.0879 15.7558ZM27.6393 2.23621L30.7572 7.6029H24.3952L21.1781 2.23621H27.6393ZM13.969 12.5224H16.5463L17.9611 10.1029H22.9804L25.4855 14.2621L24.0302 16.7665L25.5306 19.347L23.3093 22.8533H18.4747L17.0689 20.4427H13.7663L11.6711 16.8381L14.1357 12.5939L13.969 12.5224ZM10.7204 2.23621H18.2134L21.453 7.6029H17.9611L16.5553 5.19236H12.2929L10.1617 8.85513L11.7793 11.6279L10.2068 14.3113L6.94015 8.70755L10.7204 2.23621ZM2.25424 16.7486L5.4713 11.2209L8.74243 16.8381L5.52537 22.3613L2.25424 16.7486ZM10.7204 31.3058L6.98972 24.8837L10.2068 19.347L11.8108 22.1019L10.6438 24.11L12.775 27.7772H17.0464L18.4747 25.3622H21.7729L18.0512 31.3058H10.7204ZM27.6393 31.3058H21.0159L24.7061 25.3711H31.0906L27.6393 31.3058ZM32.5415 22.8533H26.265L27.7789 20.4204H30.4013L32.5324 16.7486L30.4013 13.0859H27.6978L25.8956 10.085H32.2035L36.0829 16.7486L32.5415 22.8533Z" fill="url(#paint0_linear)"/>
<defs>
<linearGradient id="paint0_linear" x1="25.1792" y1="-0.97039" x2="13.1268" y2="35.1704" gradientUnits="userSpaceOnUse">
<stop stop-color="#0083CB"/>
<stop offset="0.09" stop-color="#0C7CC6"/>
<stop offset="0.26" stop-color="#2B68B9"/>
<stop offset="0.48" stop-color="#5C49A5"/>
<stop offset="0.69" stop-color="#91288F"/>
</linearGradient>
</defs>
</svg>
