<svg xmlns="http://www.w3.org/2000/svg" xmlns:xlink="http://www.w3.org/1999/xlink" width="555" height="381" viewBox="0 0 555 381"><defs><style>.a{clip-path:url(#b);}.b,.h,.j{fill:#12274f;}.b{font-size:18px;font-family:Glegoo-Bold, Glegoo;font-weight:700;}.c{fill:#0c2c3b;}.d,.g{fill:#474747;}.d{font-size:12px;font-family:Roboto-Regular, Roboto;}.e{fill:#2ad588;}.f{fill:#bebebe;}.g,.i,.j{font-size:13px;font-family:Roboto-Medium, Roboto;font-weight:500;}.i,.k{fill:#fff;}</style><clipPath id="b"><rect width="555" height="381"/></clipPath></defs><g id="a" class="a"><rect class="k" width="555" height="381"/><text class="b" transform="translate(206 32)"><tspan x="0" y="0">Bonus Payment</tspan></text><g transform="translate(-32 -22)"><g transform="translate(-648 139)"><rect class="c" width="15" height="15" transform="translate(811 230)"/><text class="d" transform="translate(832 242)"><tspan x="0" y="0">% Received Bonus</tspan></text></g><g transform="translate(-515 140)"><rect class="e" width="15" height="15" transform="translate(811 229)"/><text class="d" transform="translate(834 241)"><tspan x="0" y="0">% Did not Received Bonus</tspan></text></g></g><g transform="translate(2 -13)"><g transform="translate(67.5 299.503) rotate(-90)"><path class="f" d="M169,.5H0v-1H169Z" transform="translate(23.503 8.5)"/></g><g transform="translate(36 216)"><text class="g" transform="translate(0 14)"><tspan x="0" y="0">Male</tspan></text></g><g transform="translate(22 137)"><text class="g" transform="translate(0 14)"><tspan x="0" y="0">Female</tspan></text></g><rect class="h" width="30" height="346" transform="translate(76 161) rotate(-90)"/><rect class="h" width="30" height="405" transform="translate(76 240) rotate(-90)"/><rect class="e" width="30" height="95" transform="translate(421 161) rotate(-90)"/><rect class="e" width="30" height="35" transform="translate(481 240) rotate(-90)"/><text class="i" transform="translate(237 151)"><tspan x="0" y="0">80%</tspan></text><text class="i" transform="translate(267 230)"><tspan x="0" y="0">93%</tspan></text><text class="j" transform="translate(457 151)"><tspan x="0" y="0">20%</tspan></text><text class="j" transform="translate(490 230)"><tspan x="0" y="0">7%</tspan></text><g transform="translate(4 -38)"><text class="g" transform="translate(68 331)"><tspan x="0" y="0">0%</tspan></text><text class="g" transform="translate(147 331)"><tspan x="0" y="0">20%</tspan></text><text class="g" transform="translate(234 331)"><tspan x="0" y="0">40%</tspan></text><text class="g" transform="translate(320 331)"><tspan x="0" y="0">60%</tspan></text><text class="g" transform="translate(407 331)"><tspan x="0" y="0">80%</tspan></text><text class="g" transform="translate(493 331)"><tspan x="0" y="0">100%</tspan></text></g></g></g></svg>