<svg xmlns="http://www.w3.org/2000/svg" width="120" height="30.001" viewBox="0 0 120 30.001"><g transform="translate(-0.003 0)"><path d="M101.09,30h.625V27.107h.011L102.765,30h.541l1.039-2.893h.011V30h.625V26.251h-.914l-1.008,2.935h-.011l-1.034-2.935h-.924V30Zm-3.459-3.182h1.186V30h.656V26.818h1.192v-.567H97.631v.567ZM90,30,120,0H101.947l-30,30H90ZM85.7,13.065H49.385c-11.068,0-13.005.587-17.746,5.327C27.205,22.826,20,30,20,30H35.735l3.753-3.753c2.467-2.468,3.74-2.723,8.921-2.723H75.243L85.7,13.065ZM31.155,16.253C27.88,19.343,20.756,26.263,16.916,30H0S13.555,16.487,21.088,9.072C28.848,1.685,32.717,0,46.952,0H98.768L87.549,11.219H48c-10,0-12.249.693-16.849,5.034Z" fill="#e10600"/></g></svg>