<svg xmlns="http://www.w3.org/2000/svg" width="60.953" height="60.953" viewBox="0 0 60.953 60.953"><defs><style>.a{fill:#20ea8c;}.b{fill:#10bd6d;}.c{fill:#fff;}</style></defs><g transform="translate(0.715 1.038)"><g transform="translate(-0.021 -0.345)"><circle class="a" cx="28.477" cy="28.477" r="28.477" transform="translate(1.307 1.307)"/><path class="b" d="M28.477,0A28.477,28.477,0,1,0,56.953,28.477,28.477,28.477,0,0,0,28.477,0m0-2a30.468,30.468,0,0,1,21.55,52.027A30.477,30.477,0,1,1,16.613.4,30.288,30.288,0,0,1,28.477-2Z" transform="translate(1.307 1.307)"/></g><path class="c" d="M141.617,181.169a2.034,2.034,0,0,1-1.452-.609l-7.514-7.637a2.036,2.036,0,1,1,2.9-2.855l6,6.1,12.42-13.679a2.036,2.036,0,1,1,3.014,2.739L143.124,180.5a2.037,2.037,0,0,1-1.466.668A.285.285,0,0,0,141.617,181.169Z" transform="translate(-114.781 -141.863)"/></g></svg>