<svg xmlns="http://www.w3.org/2000/svg" viewBox="0 0 356.77 94.17"><defs><style>.cls-1{fill:#155763;}.cls-2,.cls-4{fill:#fff;}.cls-3{fill:#9dc938;}.cls-4{opacity:0.2;}</style></defs><g id="Layer_2" data-name="Layer 2"><g id="Layer_1-2" data-name="Layer 1"><path class="cls-1" d="M120.69,59l.06-31.23-11.25,0V24.94a3.94,3.94,0,0,1,4-4l26.26.05v6.73l-11.15,0L128.53,59Z"/><path class="cls-1" d="M161.53,50l5.52,0a12.12,12.12,0,0,1-4.65,7,14,14,0,0,1-8.61,2.52q-6.28,0-9.81-4.1t-3.51-11.37q0-7.06,3.44-11T153.74,29q6.62,0,10.25,4t3.51,11.37v1.21a1.72,1.72,0,0,1-.12.77l-19.08,0a7.61,7.61,0,0,0,1.64,5.08,5.21,5.21,0,0,0,4.3,1.77,6.19,6.19,0,0,0,3.2-.77,1.52,1.52,0,0,0,.61-.38l.61-.61a2.39,2.39,0,0,1,.83-.88A3.35,3.35,0,0,1,161.53,50Zm-13.22-8.63,11.25,0A7.14,7.14,0,0,0,158,37a5.28,5.28,0,0,0-4.08-1.55,5.37,5.37,0,0,0-4,1.53A6.32,6.32,0,0,0,148.31,41.34Z"/><path class="cls-1" d="M189.11,50h5.52A12.09,12.09,0,0,1,190,57.09a14,14,0,0,1-8.61,2.52q-6.28,0-9.81-4.1t-3.51-11.37q0-7.06,3.44-11t9.83-4.06q6.62,0,10.25,4a15.24,15.24,0,0,1,2.86,5.63h-7.72a6.69,6.69,0,0,0-1.1-1.66,6,6,0,0,0-8.06,0q-2,2.2-2,7.27c0,3.39.65,5.78,2,7.18a5.19,5.19,0,0,0,4.3,1.77,6.32,6.32,0,0,0,3.2-.76,1.52,1.52,0,0,0,.6-.39l.61-.61a4.85,4.85,0,0,1,.89-.88A3,3,0,0,1,189.11,50Z"/><path class="cls-1" d="M214.29,38.05a5.26,5.26,0,0,0-4.52-2.33,5.59,5.59,0,0,0-4.75,2.2A9.91,9.91,0,0,0,203.36,44l0,15.12h-7.5l.07-38h3.75a3.77,3.77,0,0,1,3.74,3.76v8.71A8.75,8.75,0,0,1,209,29.43a11.19,11.19,0,0,1,7,.46,12.34,12.34,0,0,1,5.18,4.2c1.39,1.91,2.09,4.56,2.08,7.95l0,17.1-7.39,0,0-15.22a15.08,15.08,0,0,0-.27-3A7.48,7.48,0,0,0,214.29,38.05Z"/><path class="cls-1" d="M237.22,47.36h7.72A6.08,6.08,0,0,0,247.47,52a10.5,10.5,0,0,0,6.07,1.56,9.17,9.17,0,0,0,5.19-1.21,4,4,0,0,0,1.77-3.53q0-3.53-9.92-5.75l-.22-.11-.88-.22q-5.62-1.23-7.5-2.56a6.57,6.57,0,0,1-3.08-3.53,10.36,10.36,0,0,1-1.1-5.08,10.42,10.42,0,0,1,3.77-8.49q3.75-3,10.93-3,6.72,0,10.36,3.11a12.24,12.24,0,0,1,4,9H262.4a3.76,3.76,0,0,1-3.63-2.33A5.45,5.45,0,0,0,257.23,28a9.14,9.14,0,0,0-5.41-1.45c-2.2,0-3.79.4-4.74,1.21a4,4,0,0,0-1.66,3.41q0,3,6.39,4.43a18.7,18.7,0,0,0,2.75.66c1.33.45,2.48.8,3.48,1.06l2.37.61,3.08,1.33a9.6,9.6,0,0,1,3.42,3.43,10.74,10.74,0,0,1,1.2,5.07c0,4-1.33,7.06-4,9.27q-4,3.08-11.26,3.06-7.5,0-11.24-3.22Q237.54,53.66,237.22,47.36Z"/><path class="cls-1" d="M277.12,66.3A3.76,3.76,0,0,1,273.37,70h-3.75l.05-27.47q0-7.73,4.54-10.53A18.2,18.2,0,0,1,284,29.24a15.83,15.83,0,0,1,5.57,1.06,10.32,10.32,0,0,1,4.47,3q3.3,4.3,3.29,11,0,6.94-3.34,11.25a10.32,10.32,0,0,1-8.5,4.17,11.06,11.06,0,0,1-4.85-1,8.3,8.3,0,0,1-3.52-3.43Zm12.62-21.6a11.28,11.28,0,0,0-1.64-6.63,5.48,5.48,0,0,0-4.74-2.32,5.34,5.34,0,0,0-4.64,2.31c-1,1.39-1.55,3.6-1.55,6.61q0,4.2,1.64,6.29a5.46,5.46,0,0,0,4.74,2.33A5.29,5.29,0,0,0,288.08,51,10.63,10.63,0,0,0,289.74,44.7Z"/><path class="cls-1" d="M302.3,56.63a10.91,10.91,0,0,1-3.3-5.35,24.38,24.38,0,0,1-1-7,21.88,21.88,0,0,1,.84-6,12.3,12.3,0,0,1,2.6-5,11.45,11.45,0,0,1,7.4-3.9,17.07,17.07,0,0,1,8.16.73,11.28,11.28,0,0,1,6.17,5.75,18.45,18.45,0,0,1,1.86,8.5,21.14,21.14,0,0,1-.79,6.07,15.43,15.43,0,0,1-2,4.3,11.08,11.08,0,0,1-6.74,4.51,15.15,15.15,0,0,1-7.33.15A12.83,12.83,0,0,1,302.3,56.63Zm5.33-19.4c-1.55,1.69-2.25,4.2-2.11,7.55s.76,5.68,1.86,7a4.88,4.88,0,0,0,2.32,1.49,5.22,5.22,0,0,0,3.36.12,5.64,5.64,0,0,0,3-2.48c.88-1.32,1.37-3.45,1.45-6.39a11.27,11.27,0,0,0-1.26-6A5.77,5.77,0,0,0,313.37,36a5.35,5.35,0,0,0-3.31-.06A5.68,5.68,0,0,0,307.63,37.23Z"/><path class="cls-1" d="M326.23,59.33l0-14.24a18.26,18.26,0,0,1,1.28-7.22A11.87,11.87,0,0,1,331,33.19a13.6,13.6,0,0,1,4.91-2.42,21.6,21.6,0,0,1,5.79-.76h1.11l0,7.83h-2.53a6.46,6.46,0,0,0-4.75,1.53Q334,40.92,334,44.23l0,15.11Z"/><path class="cls-1" d="M356.57,59.38a58.5,58.5,0,0,1-7.88-.12c-2.84-.23-4.25-2-4.24-5.42l.06-32.43h4a3.76,3.76,0,0,1,3.63,3.76v5h4.53v1.54a3.62,3.62,0,0,1-1.11,2.7,3.67,3.67,0,0,1-2.65,1h-.77l0,16.33c0,1.25.73,1.88,2.2,1.88h2.31Z"/><path class="cls-1" d="M266.16,85.15a2.82,2.82,0,0,1-1.09,1,4.06,4.06,0,0,1-4.38-1,5.57,5.57,0,0,1,0-6.63,3.82,3.82,0,0,1,3-1.25,4.4,4.4,0,0,1,2.67.78,3.31,3.31,0,0,1,1.23,2.17h-1.21a.83.83,0,0,1-.78-.48,1.88,1.88,0,0,0-.51-.55,2.23,2.23,0,0,0-1.33-.36,2.11,2.11,0,0,0-1.72.78,3.57,3.57,0,0,0-.63,2.22,3.47,3.47,0,0,0,.65,2.22,2.17,2.17,0,0,0,1.79.78,2.08,2.08,0,0,0,1.41-.48A2.3,2.3,0,0,0,266,83H264.9a.87.87,0,0,1-.64-.27.82.82,0,0,1-.26-.64v-.58h3.6v4.72h-.48a.84.84,0,0,1-.88-.71Z"/><path class="cls-1" d="M278.29,86.21l0-7.76a.89.89,0,0,1,.91-.91h.88V84.6h4.23v1.61Z"/><path class="cls-1" d="M294.78,81.9a4.82,4.82,0,0,1,1.11-3.35,4.12,4.12,0,0,1,3.1-1.23,4.2,4.2,0,0,1,3.1,1.24,4.83,4.83,0,0,1,1.13,3.36,4.7,4.7,0,0,1-1.14,3.32,4.56,4.56,0,0,1-6.2,0A4.7,4.7,0,0,1,294.78,81.9Zm1.79,0a3.36,3.36,0,0,0,.62,2.22,2.17,2.17,0,0,0,1.79.78,2.23,2.23,0,0,0,1.79-.78,3.37,3.37,0,0,0,.66-2.21,3.58,3.58,0,0,0-.65-2.25,2.21,2.21,0,0,0-1.79-.78,2.14,2.14,0,0,0-1.79.77A3.51,3.51,0,0,0,296.57,81.91Z"/><path class="cls-1" d="M313.94,86.27V78.51a.92.92,0,0,1,.91-.91H318a3.24,3.24,0,0,1,2,.56,2.3,2.3,0,0,1,.42,2.75,2.07,2.07,0,0,1-.78.68,2,2,0,0,1,1.33,2,2.44,2.44,0,0,1-.81,2,3.6,3.6,0,0,1-2.35.68Zm1.71-1.56h2.12a1.81,1.81,0,0,0,1.09-.28,1,1,0,0,0,.35-.85,1.08,1.08,0,0,0-.35-.89,1.86,1.86,0,0,0-1.11-.25h-2.09Zm0-3.75h2a1.62,1.62,0,0,0,1-.22A.83.83,0,0,0,319,80a.81.81,0,0,0-.3-.7,1.59,1.59,0,0,0-1-.21h-2Z"/><path class="cls-1" d="M335.47,77.64h1.41L340,86.32h-1.89l-.57-1.79h-3.38l-.56,1.79h-1.89l2.89-8.09A.85.85,0,0,1,335.47,77.64Zm.4,1.74-1.22,3.68h2.42Z"/><path class="cls-1" d="M350.74,86.34V78.58a.85.85,0,0,1,.27-.64.87.87,0,0,1,.64-.27h.88v7.06h4.24v1.61Z"/><path class="cls-1" d="M91.43,23.74l-4,37.71A13.08,13.08,0,0,1,82,70.75L51.57,92.43a9.43,9.43,0,0,1-5.93,1.73,9.32,9.32,0,0,1-4.9-1.66l-9-6.25L8.5,70.22a13.05,13.05,0,0,1-5.62-9.79L0,22.32A13.08,13.08,0,0,1,9.83,8.66l32-8.25a13.09,13.09,0,0,1,6.78.07L57,2.8l25,6.94A13.1,13.1,0,0,1,91.43,23.74Z"/><path class="cls-2" d="M43,67.39a8.49,8.49,0,0,1,7.73-8.74c2.86-.32,5.78-.17,8.67-.21s4.33-1.23,4.39-3.33-1.63-3.5-4.45-3.52c-2.45,0-4.9,0-7.34,0a12.38,12.38,0,0,1-12.05-12c-.28-6.37,4.51-12.34,10.89-12.76,6.05-.4,12.15-.09,18.21-.09.58,4.35-3.2,8.58-8,8.85-2.59.15-5.19,0-7.79.06S49,37,49,39.14s1.53,3.43,4.26,3.46c2.37,0,4.75,0,7.12,0A12.38,12.38,0,0,1,72.75,54.24c.35,6.74-4.2,12.55-11,13.05C55.59,67.75,49.34,67.39,43,67.39Z"/><path class="cls-3" d="M26,53.69v-18H12.62a8.53,8.53,0,0,1,8.07-8.93c6.58-.2,13.16-.05,20.45-.05C35.56,29.47,34.76,34,35,38.94a46.72,46.72,0,0,1,0,5.55A9.8,9.8,0,0,1,26,53.69Z"/><path class="cls-4" d="M91.43,23.74l-4,37.71A13.08,13.08,0,0,1,82,70.75L51.57,92.43a9.43,9.43,0,0,1-5.93,1.73,9.32,9.32,0,0,1-4.9-1.66l-9-6.25L57,2.8l25,6.94A13.1,13.1,0,0,1,91.43,23.74Z"/></g></g></svg>