<svg xmlns="http://www.w3.org/2000/svg" xmlns:xlink="http://www.w3.org/1999/xlink" width="600" height="400" viewBox="0 0 600 400"><defs><style>.a{clip-path:url(#b);}.b,.h{fill:#12274f;}.b{font-size:18px;font-family:Glegoo-Bold, Glegoo;font-weight:700;}.c{fill:#0c2c3b;}.d,.g,.i{fill:#474747;}.d,.i{font-size:12px;}.d{font-family:Roboto-Regular, Roboto;}.e{fill:#2ad588;}.f{fill:#bebebe;}.g{font-size:13px;}.g,.i{font-family:Roboto-Medium, Roboto;font-weight:500;}.j{fill:#fff;}</style><clipPath id="b"><rect width="600" height="400"/></clipPath></defs><g id="a" class="a"><rect class="j" width="600" height="400"/><text class="b" transform="translate(240 32)"><tspan x="0" y="0">Pay Quartiles</tspan></text><g transform="translate(-22 -1)"><g transform="translate(-551 140)"><rect class="c" width="15" height="15" transform="translate(811 230)"/><text class="d" transform="translate(835 242)"><tspan x="0" y="0">Male</tspan></text></g><g transform="translate(-488 141)"><rect class="e" width="15" height="15" transform="translate(811 229)"/><text class="d" transform="translate(834 241)"><tspan x="0" y="0">Female</tspan></text></g></g><g transform="translate(-191 -204)"><g transform="translate(205 267)"><g transform="translate(8 240)"><path class="f" d="M532.5.5H0v-1H532.5Z" transform="translate(31.5 8.5)"/><text class="g" transform="translate(0 14)"><tspan x="0" y="0">0%</tspan></text></g><g transform="translate(4 192)"><text class="g" transform="translate(0 14)"><tspan x="0" y="0">20%</tspan></text></g><g transform="translate(4 144)"><text class="g" transform="translate(0 14)"><tspan x="0" y="0">40%</tspan></text></g><g transform="translate(4 96)"><text class="g" transform="translate(0 14)"><tspan x="0" y="0">60%</tspan></text></g><g transform="translate(4 48)"><text class="g" transform="translate(0 14)"><tspan x="0" y="0">80%</tspan></text></g><text class="g" transform="translate(0 14)"><tspan x="0" y="0">100%</tspan></text></g></g><g transform="translate(10 -8)"><rect class="h" width="30" height="226" transform="translate(79 93)"/><text class="g" transform="translate(82 86)"><tspan x="0" y="0">96%</tspan></text></g><g transform="translate(134 -8)"><rect class="h" width="30" height="219" transform="translate(79 100)"/><text class="g" transform="translate(82 95)"><tspan x="0" y="0">93%</tspan></text></g><g transform="translate(286 -8)"><rect class="h" width="30" height="219" transform="translate(79 100)"/><text class="g" transform="translate(82 95)"><tspan x="0" y="0">93%</tspan></text></g><g transform="translate(424 -8)"><rect class="h" width="30" height="209" transform="translate(79 110)"/><text class="g" transform="translate(82 105)"><tspan x="0" y="0">90%</tspan></text></g><g transform="translate(11 -8)"><rect class="e" width="30" height="12" transform="translate(108 307)"/><text class="g" transform="translate(115 301)"><tspan x="0" y="0">4%</tspan></text></g><g transform="translate(135 -8)"><rect class="e" width="30" height="16" transform="translate(108 303)"/><text class="g" transform="translate(115 296)"><tspan x="0" y="0">7%</tspan></text></g><g transform="translate(287 -8)"><rect class="e" width="30" height="16" transform="translate(108 303)"/><text class="g" transform="translate(115 296)"><tspan x="0" y="0">7%</tspan></text></g><g transform="translate(425 -8)"><rect class="e" width="30" height="23" transform="translate(108 296)"/><text class="g" transform="translate(112 290)"><tspan x="0" y="0">10%</tspan></text></g><text class="i" transform="translate(79 332)"><tspan x="0" y="0">Top Quartile</tspan></text><text class="i" transform="translate(242 332)"><tspan x="-58.553" y="0">Upper Middle Quartile</tspan></text><text class="i" transform="translate(395 332)"><tspan x="-59.007" y="0">Lower Middle Quartile</tspan></text><text class="i" transform="translate(532 332)"><tspan x="-42.492" y="0">Bottom Quartile</tspan></text></g></svg>